REM DIRINDEX 1\2,1\3,1\4,1\5
REM DIRNAME folder01,folder02,folder03,folder04,folder05
TITLE ""
FILE "1Q_t_0929-0938.mp3" MP3
  TRACK 01 AUDIO
    TITLE "3:cjc004_3691"
    INDEX 01 00:00:00
  TRACK 02 AUDIO
    TITLE "0:"
    INDEX 01 00:00:70
  TRACK 03 AUDIO
    TITLE "4:cjc004_3692"
    INDEX 01 00:01:22
  TRACK 04 AUDIO
    TITLE "0:"
    INDEX 01 00:02:30
  TRACK 05 AUDIO
    TITLE "5:cjc004_3693"
    INDEX 01 00:02:55
  TRACK 06 AUDIO
    TITLE "0:"
    INDEX 01 00:07:21
  TRACK 07 AUDIO
    TITLE "3:cjc004_3694"
    INDEX 01 00:07:72
  TRACK 08 AUDIO
    TITLE "0:"
    INDEX 01 00:09:20
  TRACK 09 AUDIO
    TITLE "4:cjc004_3695"
    INDEX 01 00:09:49
  TRACK 10 AUDIO
    TITLE "0:"
    INDEX 01 00:11:15
  TRACK 11 AUDIO
    TITLE "5:cjc004_3696"
    INDEX 01 00:11:42
  TRACK 12 AUDIO
    TITLE "0:"
    INDEX 01 00:16:16
  TRACK 13 AUDIO
    TITLE "3:cjc004_3697"
    INDEX 01 00:16:67
  TRACK 14 AUDIO
    TITLE "0:"
    INDEX 01 00:18:11
  TRACK 15 AUDIO
    TITLE "4:cjc004_3698"
    INDEX 01 00:18:39
  TRACK 16 AUDIO
    TITLE "0:"
    INDEX 01 00:19:52
  TRACK 17 AUDIO
    TITLE "5:cjc004_3699"
    INDEX 01 00:20:04
  TRACK 18 AUDIO
    TITLE "0:"
    INDEX 01 00:24:51
  TRACK 19 AUDIO
    TITLE "3:cjc004_3700"
    INDEX 01 00:25:31
  TRACK 20 AUDIO
    TITLE "0:"
    INDEX 01 00:26:42
  TRACK 21 AUDIO
    TITLE "4:cjc004_3701"
    INDEX 01 00:26:69
  TRACK 22 AUDIO
    TITLE "0:"
    INDEX 01 00:28:04
  TRACK 23 AUDIO
    TITLE "5:cjc004_3702"
    INDEX 01 00:28:31
  TRACK 24 AUDIO
    TITLE "0:"
    INDEX 01 00:34:38
  TRACK 25 AUDIO
    TITLE "3:cjc004_3703"
    INDEX 01 00:35:17
  TRACK 26 AUDIO
    TITLE "0:"
    INDEX 01 00:36:40
  TRACK 27 AUDIO
    TITLE "4:cjc004_3704"
    INDEX 01 00:36:66
  TRACK 28 AUDIO
    TITLE "0:"
    INDEX 01 00:38:00
  TRACK 29 AUDIO
    TITLE "5:cjc004_3705"
    INDEX 01 00:38:24
  TRACK 30 AUDIO
    TITLE "0:"
    INDEX 01 00:41:53
  TRACK 31 AUDIO
    TITLE "3:cjc004_3706"
    INDEX 01 00:42:35
  TRACK 32 AUDIO
    TITLE "0:"
    INDEX 01 00:43:52
  TRACK 33 AUDIO
    TITLE "4:cjc004_3707"
    INDEX 01 00:43:74
  TRACK 34 AUDIO
    TITLE "0:"
    INDEX 01 00:45:14
  TRACK 35 AUDIO
    TITLE "5:cjc004_3708"
    INDEX 01 00:45:37
  TRACK 36 AUDIO
    TITLE "0:"
    INDEX 01 00:50:15
  TRACK 37 AUDIO
    TITLE "3:cjc004_3709"
    INDEX 01 00:50:72
  TRACK 38 AUDIO
    TITLE "0:"
    INDEX 01 00:52:08
  TRACK 39 AUDIO
    TITLE "4:cjc004_3710"
    INDEX 01 00:52:34
  TRACK 40 AUDIO
    TITLE "0:"
    INDEX 01 00:53:60
  TRACK 41 AUDIO
    TITLE "5:cjc004_3711"
    INDEX 01 00:54:09
  TRACK 42 AUDIO
    TITLE "0:"
    INDEX 01 00:58:24
  TRACK 43 AUDIO
    TITLE "3:cjc004_3712"
    INDEX 01 00:59:00
  TRACK 44 AUDIO
    TITLE "0:"
    INDEX 01 01:00:23
  TRACK 45 AUDIO
    TITLE "4:cjc004_3713"
    INDEX 01 01:00:53
  TRACK 46 AUDIO
    TITLE "0:"
    INDEX 01 01:02:06
  TRACK 47 AUDIO
    TITLE "5:cjc004_3714"
    INDEX 01 01:02:32
  TRACK 48 AUDIO
    TITLE "0:"
    INDEX 01 01:07:19
  TRACK 49 AUDIO
    TITLE "3:cjc004_3715"
    INDEX 01 01:07:74
  TRACK 50 AUDIO
    TITLE "0:"
    INDEX 01 01:08:72
  TRACK 51 AUDIO
    TITLE "4:cjc004_3716"
    INDEX 01 01:09:24
  TRACK 52 AUDIO
    TITLE "0:"
    INDEX 01 01:10:39
  TRACK 53 AUDIO
    TITLE "5:cjc004_3717"
    INDEX 01 01:10:61
  TRACK 54 AUDIO
    TITLE "0:"
    INDEX 01 01:14:74
  TRACK 55 AUDIO
    TITLE "3:cjc004_3718"
    INDEX 01 01:15:50
  TRACK 56 AUDIO
    TITLE "0:"
    INDEX 01 01:16:54
  TRACK 57 AUDIO
    TITLE "4:cjc004_3719"
    INDEX 01 01:17:06
  TRACK 58 AUDIO
    TITLE "0:"
    INDEX 01 01:18:54
  TRACK 59 AUDIO
    TITLE "5:cjc004_3720"
    INDEX 01 01:19:05
  TRACK 60 AUDIO
    TITLE "0:"
    INDEX 01 01:23:22
